<svg width="1000" height="1000" viewBox="0 0 1000 1000" fill="none" xmlns="http://www.w3.org/2000/svg">
<path d="M483.652 959.909L616.452 880.029C616.482 880.011 616.5 879.979 616.5 879.943V200.177C616.5 200.099 616.415 200.051 616.348 200.091L483.548 279.971C483.518 279.989 483.5 280.021 483.5 280.057V959.823C483.5 959.901 483.585 959.949 483.652 959.909Z" fill="#00A1CE" stroke="#007389" stroke-width="25"/>
<path d="M483.5 454.935V280.154C483.5 280.081 483.574 280.033 483.641 280.062L733.441 390.974C733.477 390.99 733.5 391.025 733.5 391.065V565.846C733.5 565.919 733.426 565.967 733.359 565.938L483.559 455.026C483.523 455.01 483.5 454.975 483.5 454.935Z" fill="#17DFFB" stroke="#007389" stroke-width="25"/>
<path d="M133.5 289.937V120.155C133.5 120.082 133.575 120.034 133.641 120.063L333.441 209.973C333.477 209.99 333.5 210.025 333.5 210.065V384.842C333.5 384.915 333.423 384.964 333.357 384.932L133.557 290.027C133.522 290.011 133.5 289.975 133.5 289.937Z" fill="#17DFFB" stroke="#007389" stroke-width="25"/>
<path d="M333.558 890.027L483.358 959.934C483.424 959.965 483.5 959.916 483.5 959.843V280.064C483.5 280.025 483.477 279.989 483.442 279.973L333.642 210.066C333.576 210.035 333.5 210.084 333.5 210.157V889.936C333.5 889.975 333.522 890.01 333.558 890.027Z" fill="#17DFFB" stroke="#007389" stroke-width="25"/>
<path d="M733.452 390.979L483.676 280.078C483.602 280.045 483.595 279.943 483.665 279.901L616.456 200.027C616.483 200.01 616.518 200.008 616.547 200.021L866.325 309.923C866.398 309.955 866.405 310.058 866.336 310.1L733.545 390.973C733.517 390.99 733.482 390.992 733.452 390.979Z" fill="#8AF8FA" stroke="#007389" stroke-width="25"/>
<path d="M733.5 391.056V565.821C733.5 565.899 733.586 565.947 733.652 565.906L866.452 484.029C866.482 484.011 866.5 483.979 866.5 483.944V310.178C866.5 310.1 866.415 310.052 866.348 310.093L733.548 390.971C733.518 390.989 733.5 391.021 733.5 391.056Z" fill="#00A1CE" stroke="#007389" stroke-width="25"/>
<path d="M466.454 130.027L333.661 209.903C333.592 209.944 333.598 210.046 333.67 210.079L483.452 279.978C483.482 279.992 483.517 279.99 483.546 279.973L616.339 200.097C616.408 200.056 616.402 199.954 616.33 199.921L466.548 130.023C466.518 130.008 466.483 130.01 466.454 130.027Z" fill="#8AF8FA" stroke="#007389" stroke-width="25"/>
<path d="M333.558 385.027L483.358 454.934C483.424 454.965 483.5 454.916 483.5 454.843V280.064C483.5 280.025 483.477 279.989 483.442 279.973L333.642 210.066C333.576 210.035 333.5 210.084 333.5 210.157V384.936C333.5 384.975 333.522 385.01 333.558 385.027Z" fill="#17DFFB" stroke="#007389" stroke-width="25"/>
<path d="M466.336 130.098L333.545 209.973C333.517 209.99 333.482 209.992 333.452 209.979L133.674 120.078C133.601 120.045 133.595 119.943 133.664 119.902L266.455 40.027C266.483 40.0101 266.518 40.008 266.548 40.0215L466.326 129.922C466.399 129.955 466.405 130.057 466.336 130.098Z" fill="#8AF8FA" stroke="#007389" stroke-width="25"/>
</svg>
